<svg width="41" height="41" viewBox="0 0 41 41" fill="none" xmlns="http://www.w3.org/2000/svg">
<g filter="url(#filter0_d_639_22031)">
<path d="M2.38452 20.3848C2.38452 10.4436 10.4434 2.38477 20.3845 2.38477C30.3256 2.38477 38.3845 10.4436 38.3845 20.3848C38.3845 30.3259 30.3256 38.3848 20.3845 38.3848C10.4434 38.3848 2.38452 30.3259 2.38452 20.3848Z" fill="white" fill-opacity="0.01" shape-rendering="crispEdges"/>
<g clip-path="url(#clip0_639_22031)">
<mask id="mask0_639_22031" style="mask-type:luminance" maskUnits="userSpaceOnUse" x="2" y="2" width="37" height="37">
<path d="M38.3845 2.38477H2.38452V38.3848H38.3845V2.38477Z" fill="white"/>
</mask>
<g mask="url(#mask0_639_22031)">
<path d="M20.3855 38.3857C30.3266 38.3857 38.3855 30.3269 38.3855 20.3857C38.3855 10.4446 30.3266 2.38574 20.3855 2.38574C10.4444 2.38574 2.3855 10.4446 2.3855 20.3857C2.3855 30.3269 10.4444 38.3857 20.3855 38.3857Z" fill="#441316"/>
<path d="M28.0176 27.5962C27.6626 27.9513 27.1325 28.1483 26.4218 28.153C25.7084 28.1578 24.8438 27.9669 23.8787 27.5809C21.95 26.8095 19.6984 25.2888 17.5995 23.1899C15.5007 21.0911 13.9804 18.8397 13.2089 16.9111C12.823 15.946 12.6321 15.0813 12.6368 14.368C12.6415 13.6572 12.8386 13.1272 13.1936 12.7721C13.5487 12.4172 14.0783 12.2206 14.7889 12.2159C15.5023 12.2112 16.3674 12.4014 17.3325 12.7875C19.2611 13.5589 21.512 15.0798 23.6108 17.1785C25.7097 19.2774 27.2309 21.5286 28.0023 23.4573C28.3884 24.4224 28.5787 25.2875 28.5739 26.0009C28.5692 26.7114 28.3725 27.2413 28.0176 27.5962Z" stroke="#FEFEF8" stroke-width="0.84746"/>
<path d="M13.4114 27.5962C13.7663 27.9513 14.2965 28.1483 15.0072 28.153C15.7205 28.1578 16.5852 27.9669 17.5503 27.5809C19.4789 26.8095 21.7306 25.2888 23.8295 23.1899C25.9283 21.0911 27.4486 18.8397 28.22 16.9111C28.606 15.946 28.7969 15.0813 28.7921 14.368C28.7875 13.6572 28.5904 13.1272 28.2354 12.7721C27.8803 12.4172 27.3507 12.2206 26.6401 12.2159C25.9266 12.2112 25.0616 12.4014 24.0964 12.7875C22.1678 13.5589 19.9169 15.0798 17.8182 17.1785C15.7193 19.2774 14.1981 21.5286 13.4267 23.4573C13.0406 24.4224 12.8503 25.2875 12.8551 26.0009C12.8598 26.7114 13.0565 27.2413 13.4114 27.5962Z" stroke="#FEFEF8" stroke-width="0.84746"/>
</g>
</g>
</g>
<defs>
<filter id="filter0_d_639_22031" x="-0.000119507" y="0.000124633" width="40.7693" height="40.7693" filterUnits="userSpaceOnUse" color-interpolation-filters="sRGB">
<feFlood flood-opacity="0" result="BackgroundImageFix"/>
<feColorMatrix in="SourceAlpha" type="matrix" values="0 0 0 0 0 0 0 0 0 0 0 0 0 0 0 0 0 0 127 0" result="hardAlpha"/>
<feMorphology radius="0.550301" operator="dilate" in="SourceAlpha" result="effect1_dropShadow_639_22031"/>
<feOffset/>
<feGaussianBlur stdDeviation="0.91717"/>
<feComposite in2="hardAlpha" operator="out"/>
<feColorMatrix type="matrix" values="0 0 0 0 0.266667 0 0 0 0 0.0745098 0 0 0 0 0.0862745 0 0 0 0.01 0"/>
<feBlend mode="normal" in2="BackgroundImageFix" result="effect1_dropShadow_639_22031"/>
<feBlend mode="normal" in="SourceGraphic" in2="effect1_dropShadow_639_22031" result="shape"/>
</filter>
<clipPath id="clip0_639_22031">
<rect width="36" height="36" fill="white" transform="translate(2.38452 2.38477)"/>
</clipPath>
</defs>
</svg>
